<svg width="49" height="48" viewBox="0 0 49 48" fill="none" xmlns="http://www.w3.org/2000/svg">
<g clip-path="url(#clip0_965_120)">
<g clip-path="url(#clip1_965_120)">
<path d="M24.8406 22.802C29.1448 22.802 32.4925 19.3066 32.4925 15.0169C32.4925 10.7271 28.9854 7.39062 24.6812 7.39062C20.377 7.39062 17.0293 10.886 17.0293 15.0169C17.0293 19.3066 20.5364 22.802 24.8406 22.802ZM24.6812 10.5682C24.8406 10.5682 24.8406 10.5682 24.6812 10.5682C27.2318 10.5682 29.3042 12.6337 29.3042 15.1757C29.3042 17.7178 27.2318 19.6244 24.6812 19.6244C22.1306 19.6244 20.2176 17.5589 20.2176 15.1757C20.2176 12.6337 22.29 10.5682 24.6812 10.5682Z" fill="#0D5C63"/>
<path d="M48.4335 21.8492C45.4046 19.1482 41.4193 17.7183 37.2745 17.8772H35.9992C35.6804 19.1482 35.2021 20.2604 34.5645 21.2137C35.5209 21.0548 36.318 21.0548 37.2745 21.0548C40.3034 20.8959 43.3323 21.8492 45.7235 23.5969V35.0362H48.9118V22.3258L48.4335 21.8492Z" fill="#0D5C63"/>
<path d="M33.6088 7.70728C34.4058 5.80072 36.6376 4.84744 38.71 5.64184C40.623 6.43624 41.5795 8.66056 40.7824 10.726C40.1448 12.1559 38.71 13.1092 37.2753 13.1092C36.9565 13.1092 36.4782 13.1092 36.1594 12.9503C36.3188 13.7447 36.3188 14.5391 36.3188 15.1746V16.1279C36.6376 16.1279 36.9565 16.2868 37.2753 16.2868C41.2607 16.2868 44.449 13.1092 44.449 9.29608C44.449 5.32408 41.2607 2.14648 37.4347 2.14648C34.8841 2.14648 32.6523 3.41752 31.377 5.64184C32.174 6.11848 32.9711 6.754 33.6088 7.70728Z" fill="#0D5C63"/>
<path d="M15.4352 21.3719C14.7975 20.4186 14.3193 19.3065 14.0005 18.0354H12.7252C8.58037 17.8765 4.59501 19.3065 1.56613 21.8485L1.08789 22.3252V35.0356H4.27618V23.5962C6.82681 21.8485 9.69628 20.8953 12.7252 21.0541C13.6816 21.0541 14.6381 21.213 15.4352 21.3719Z" fill="#0D5C63"/>
<path d="M12.7246 16.129C13.0435 16.129 13.3623 16.129 13.6811 15.9702V15.0169C13.6811 14.2225 13.6811 13.4281 13.8405 12.7926C13.5217 12.9514 13.0435 12.9514 12.7246 12.9514C10.6522 12.9514 8.89869 11.2038 8.89869 9.13831C8.89869 7.07287 10.6522 5.3252 12.7246 5.3252C14.3188 5.3252 15.7535 6.27848 16.3912 7.70839C17.0288 6.91399 17.9853 6.1196 18.7824 5.48408C16.71 2.1476 12.4058 1.03544 9.0581 3.10088C5.7104 5.16632 4.59449 9.45607 6.66688 12.7926C7.9422 14.858 10.174 16.129 12.7246 16.129Z" fill="#0D5C63"/>
<path d="M37.9128 31.3812L37.594 30.9046C34.4057 27.4092 29.9421 25.3438 25.1596 25.5027C20.3772 25.3438 15.7542 27.4092 12.5659 30.9046L12.2471 31.3812V43.4561C12.2471 44.886 13.363 46.1571 14.9571 46.1571H35.3622C36.7969 46.1571 38.0722 44.886 38.0722 43.4561V31.3812H37.9128ZM34.7245 42.9795H15.4354V32.4934C17.986 29.9513 21.4931 28.6803 25.1596 28.6803C28.6668 28.5214 32.1739 29.9513 34.7245 32.4934V42.9795Z" fill="#0D5C63"/>
</g>
</g>
<defs>
<clipPath id="clip0_965_120">
<rect width="48" height="48" fill="white" transform="translate(0.5)"/>
</clipPath>
<clipPath id="clip1_965_120">
<rect width="48" height="44.2105" fill="white" transform="translate(1 2)"/>
</clipPath>
</defs>
</svg>
