<svg width="49" height="48" viewBox="0 0 49 48" fill="none" xmlns="http://www.w3.org/2000/svg">
<g clip-path="url(#clip0_965_127)">
<path d="M44.1506 22.2829C43.5751 22.2871 43.005 22.3969 42.4678 22.6071L36.7275 17.8224C36.8687 17.3008 36.9692 16.7597 36.9692 16.1893C36.9692 12.811 34.3026 10.0957 30.9848 10.0957C27.667 10.0957 25.0003 12.811 25.0003 16.1893C25.0003 17.1545 25.2397 18.054 25.6275 18.8632L18.664 27.2431C18.3852 27.19 18.1025 27.1615 17.819 27.1578C17.3905 27.1578 16.9859 27.2309 16.5934 27.3382L10.4581 21.091C10.5658 20.6937 10.6376 20.2818 10.6376 19.8455C10.6376 17.1448 8.50238 14.9706 5.85006 14.9706C3.19775 14.9706 1.0625 17.1448 1.0625 19.8455C1.0625 22.5462 3.19775 24.7204 5.85006 24.7204C6.27855 24.7204 6.6831 24.6472 7.07568 24.54L13.2109 30.7872C13.0959 31.1921 13.0355 31.6111 13.0314 32.0327C13.0314 34.7334 15.1667 36.9076 17.819 36.9076C20.4713 36.9076 22.6065 34.7334 22.6065 32.0327C22.6065 31.455 22.4916 30.9115 22.3121 30.3972L29.2852 22.0075C29.8286 22.1684 30.3911 22.2829 30.9848 22.2829C31.9295 22.2776 32.8593 22.0428 33.6969 21.598L39.4396 26.3827C39.3946 26.6387 39.369 26.8978 39.363 27.1578C39.363 29.8585 41.4983 32.0327 44.1506 32.0327C46.8029 32.0327 48.9381 29.8585 48.9381 27.1578C48.9381 24.4571 46.8029 22.2829 44.1506 22.2829Z" fill="#0D5C63"/>
</g>
<defs>
<clipPath id="clip0_965_127">
<rect width="48" height="48" fill="white" transform="translate(0.5)"/>
</clipPath>
</defs>
</svg>
