<svg width="49" height="48" viewBox="0 0 49 48" fill="none" xmlns="http://www.w3.org/2000/svg">
<g clip-path="url(#clip0_965_134)">
<path d="M16.0637 33.9954C15.2527 33.1807 15.6755 33.4104 13.7192 32.8844C12.8316 32.6454 12.0513 32.186 11.3457 31.6357L7.11121 42.0644C6.70147 43.0741 7.46681 44.171 8.55134 44.1297L13.4691 43.9413L16.8515 47.53C17.5981 48.3213 18.9085 48.0747 19.3183 47.065L24.1763 35.1007C23.1645 35.6669 22.0417 35.9988 20.8807 35.9988C19.0607 35.9988 17.3508 35.2872 16.0637 33.9954ZM42.7272 42.0644L38.4927 31.6357C37.7871 32.1869 37.0068 32.6454 36.1192 32.8844C34.1527 33.4132 34.5839 33.1825 33.7747 33.9954C32.4876 35.2872 30.7768 35.9988 28.9568 35.9988C27.7957 35.9988 26.6729 35.666 25.6612 35.1007L30.5192 47.065C30.9289 48.0747 32.2403 48.3213 32.986 47.53L36.3693 43.9413L41.2871 44.1297C42.3716 44.171 43.1369 43.0732 42.7272 42.0644ZM31.5459 31.8738C32.972 30.416 33.1353 30.5416 35.1663 29.9857C36.4627 29.6304 37.4763 28.5944 37.8235 27.2688C38.5216 24.6063 38.3405 24.9279 40.2455 22.9797C41.1947 22.0094 41.5652 20.5947 41.218 19.2691C40.5208 16.6085 40.5199 16.9797 41.218 14.3163C41.5652 12.9907 41.1947 11.576 40.2455 10.6057C38.3405 8.65755 38.5216 8.97818 37.8235 6.31661C37.4763 4.99099 36.4627 3.95505 35.1663 3.59974C32.5641 2.8863 32.8777 3.07287 30.9709 1.1238C30.0217 0.15349 28.6376 -0.226197 27.3412 0.129115C24.74 0.841615 25.1031 0.842553 22.4972 0.129115C21.2008 -0.226197 19.8167 0.152553 18.8675 1.1238C16.9625 3.07193 17.2761 2.8863 14.6731 3.59974C13.3767 3.95505 12.3631 4.99099 12.0159 6.31661C11.3187 8.97818 11.4988 8.65755 9.59387 10.6057C8.64467 11.576 8.27321 12.9907 8.62134 14.3163C9.31854 16.975 9.31947 16.6038 8.62134 19.2682C8.27414 20.5938 8.64467 22.0085 9.59387 22.9797C11.4988 24.9279 11.3177 24.6063 12.0159 27.2688C12.3631 28.5944 13.3767 29.6304 14.6731 29.9857C16.7619 30.5575 16.9177 30.4675 18.2925 31.8738C19.5273 33.1366 21.4509 33.3625 22.9349 32.4194C23.5284 32.041 24.2168 31.8401 24.9197 31.8401C25.6226 31.8401 26.311 32.041 26.9044 32.4194C28.3875 33.3625 30.3111 33.1366 31.5459 31.8738ZM16.1141 16.4951C16.1141 11.5235 20.0565 7.49318 24.9192 7.49318C29.7819 7.49318 33.7243 11.5235 33.7243 16.4951C33.7243 21.4666 29.7819 25.4969 24.9192 25.4969C20.0565 25.4969 16.1141 21.4666 16.1141 16.4951Z" fill="#0D5C63"/>
</g>
<defs>
<clipPath id="clip0_965_134">
<rect width="35.84" height="48" fill="white" transform="translate(7)"/>
</clipPath>
</defs>
</svg>
