<svg width="48" height="48" viewBox="0 0 48 48" fill="none" xmlns="http://www.w3.org/2000/svg">
<g clip-path="url(#clip0_964_18518)">
<path d="M29.1416 13.625H41.1395V17.0703H29.1416V13.625Z" fill="white"/>
<path d="M29.1416 22.2383H41.1395V25.6836H29.1416V22.2383Z" fill="white"/>
<path d="M29.1416 30.8516H41.1395V34.2969H29.1416V30.8516Z" fill="white"/>
<path d="M44.5674 5.01172H3.43187C2.52299 5.01263 1.65161 5.37591 1.00893 6.02184C0.366264 6.66776 0.00481376 7.54356 0.00390625 8.45704V39.4649C0.00481376 40.3784 0.366264 41.2542 1.00893 41.9001C1.65161 42.546 2.52299 42.9093 3.43187 42.9102H44.5674C45.4761 42.9088 46.3472 42.5454 46.9898 41.8996C47.6324 41.2538 47.994 40.3782 47.9953 39.4649V8.45704C47.9944 7.54356 47.633 6.66776 46.9903 6.02184C46.3477 5.37591 45.4763 5.01263 44.5674 5.01172ZM3.43187 8.45704H22.2856V39.4649H3.43187V8.45704ZM25.7136 39.4649V8.45704H44.5674L44.5708 39.4649H25.7136Z" fill="white"/>
</g>
<defs>
<clipPath id="clip0_964_18518">
<rect width="48" height="37.92" fill="white" transform="translate(0 5)"/>
</clipPath>
</defs>
</svg>
